<?xml version="1.0" encoding="utf-8"?>
<!-- Generator: Adobe Illustrator 19.0.0, SVG Export Plug-In . SVG Version: 6.00 Build 0)  -->
<svg version="1.1" xmlns="http://www.w3.org/2000/svg" xmlns:xlink="http://www.w3.org/1999/xlink" x="0px" y="0px"
	 viewBox="0 0 181.7 58.2" style="enable-background:new 0 0 181.7 58.2;" xml:space="preserve">
<style type="text/css">
	.st0{fill:#FCFCFC;}
	.st1{fill:none;stroke:#FCFCFC;stroke-width:3;stroke-miterlimit:10;}
	.st2{fill:none;stroke:#000000;stroke-width:2;stroke-miterlimit:10;}
	.st3{fill:none;stroke:#FF0606;stroke-width:2;stroke-miterlimit:10;}
</style>
<g id="white_brush">
	<g id="XMLID_62_">
		<g id="XMLID_74_">
			<path class="st0" d="M32.6,31c-0.1,0-0.2,0-0.3,0c-0.8,0-1.5,0.7-1.5,1.5c0,0.8,0.7,1.5,1.5,1.5c0.1,0,0.2,0,0.3,0
				c0.8,0,1.5-0.7,1.5-1.5C34.1,31.7,33.5,31,32.6,31L32.6,31z"/>
		</g>
	</g>
	<g id="XMLID_63_">
		<g id="XMLID_81_">
			<path class="st0" d="M31.4,31.7c-0.4,1-1,1.9-1.7,2.7c-1,1.2,0.4,3.4,1.8,2.4c2.1-1.6,6.1-5.8,3.4-8.6c-2.5-2.6-5,0.7-5.9,2.9
				c-0.4,1.2,0.8,2.1,1.8,1.8c2.6-0.5,4.1-2.5,3.8-5.1c-0.1-1-0.9-1.7-1.9-1.4c-1.7,0.4-1.7,0.4-2.8,1.8c-0.9,1.2,0.3,3.5,1.8,2.4
				c2.3-1.8,4.6-2.7,7.6-2.8c1.1,0,1.6-0.9,1.4-1.9c-0.4-2.5-1.3-4.2-3-6.1c-1.2-1.3-3.1,0.4-2.4,1.8c0.2,0.4,0.4,0.8,0.6,1.3
				c0.8,1.6,3,0.4,2.7-1.2c-0.2-0.9-0.4-1.2-1-1.9c-0.4-0.4-1-0.5-1.5-0.4c-0.8,0.2-1.1,0.5-1.5,1.2c-0.3,0.4-0.3,1.1,0,1.5
				c0.1,0.1,0.1,0.2,0.2,0.3c0.8-0.6,1.6-1.2,2.4-1.8c-0.5-0.5-0.9-1.1-1.4-1.6c-0.2,0.8-0.4,1.7-0.7,2.5c5.3-2.2,4.8,7.8,5.4,10.3
				c0.7,3.3,2,6.4,3.5,9.5c0.7-0.7,1.4-1.4,2.1-2.1c-1.7-1.3-3.4-2.6-5.1-3.8c-1.3-0.9-2.7,0.8-2.1,2.1c1.9,3.4,4.5,6.1,7.7,8.3
				c1.2,0.8,2.4-0.5,2.2-1.7c-0.4-2.7-1.2-5.1-2.4-7.5c-0.6,0.7-1.1,1.5-1.7,2.2c6.6,1.5,12-2.7,12.2-9.5c-1,0.1-2,0.3-2.9,0.4
				c0.3,0.7,0.6,1.4,0.9,2.1c0.6,1.5,2.8,1.4,2.9-0.4c0.1-1.8,0.2-3.7,0.3-5.5c-1,0.1-2,0.3-2.9,0.4c0.2,1.6,0.4,3.1,0.6,4.7
				c0.2,1.6,2.5,1.2,2.9,0c0.7-2,1-3.9,1.2-6c-1,0-2,0-3,0c0.1,1.9,0.3,3.8,0.4,5.7c0.1,1.7,2.3,2,2.9,0.4c0.8-1.9,0.6-3-0.3-4.8
				c-0.7-1.3-2.9-0.7-2.8,0.8c0.2,2,0,3.8-0.4,5.7c1,0,1.9,0,2.9,0c-0.5-2.1-1.1-4.1-1.6-6.2c-0.4-1.5-2.4-1.4-2.9,0
				c-0.7,2.2-1.1,4.3-1.4,6.6c1,0,2,0,3,0c-0.2-1.7-0.4-3.4-0.5-5.1c-0.2-1.4-2-2.1-2.8-0.8c-1.2,1.9-2.1,3.8-2.9,5.9
				c-0.4,0.9,0.5,2,1.4,1.9c1.5-0.1,4.1-0.7,5.7-0.4c2,0.4,2.5,1.1,3.6,2.9c1.9,3.1,3.1,6.5,3.9,10c0.4,1.7,2.8,1.2,2.9-0.4
				c0.1-0.8,0.2-1.7,0.2-2.5c-1,0-2,0-3,0c0,0.8,0.1,1.5,0.1,2.3c0.1,1.6,2.6,2.1,2.9,0.4c1.3-5.8,3.1-11.5,5.5-17
				c-0.9-0.1-1.8-0.2-2.7-0.4c0.9,4.6,1.8,9.3,4,13.5c1.2,2.3,3.2,5.9,6,6.1c0.5,0,1.1-0.3,1.3-0.7c0.1-0.1,0.1-0.3,0.2-0.4
				c0.3-0.6,0.3-1.4-0.2-1.8c-0.1-0.1-0.2-0.2-0.3-0.3c-1.4-1.3-3.6,0.8-2.1,2.1c0.1,0.1,0.2,0.2,0.3,0.3c-0.1-0.6-0.2-1.2-0.2-1.8
				c0.8-1.5-1.3-3.1-2-4.4c-0.9-1.5-1.5-3.2-2.1-4.9c-0.9-2.8-1.4-5.7-1.9-8.5c-0.2-1.2-2.2-1.5-2.7-0.4C69,34.3,67,40.2,65.6,46.3
				c1,0.1,2,0.3,2.9,0.4c0-0.8-0.1-1.5-0.1-2.3c-0.1-2-2.8-1.9-3,0c-0.1,0.8-0.2,1.7-0.2,2.5c1-0.1,2-0.3,2.9-0.4
				c-1.1-4.5-2.8-9.6-5.9-13.2c-2.6-3-6.6-1.8-10.2-1.5c0.5,0.6,1,1.3,1.4,1.9c0.7-1.9,1.6-3.5,2.6-5.2c-0.9-0.3-1.9-0.5-2.8-0.8
				c0.2,1.7,0.4,3.4,0.5,5.1c0.2,1.9,2.8,1.9,3,0c0.2-2.1,0.6-3.8,1.3-5.8c-1,0-1.9,0-2.9,0c0.5,2.1,1.1,4.1,1.6,6.2
				c0.4,1.4,2.5,1.4,2.9,0c0.6-2.2,0.7-4.2,0.5-6.5c-0.9,0.3-1.9,0.5-2.8,0.8c0,0.8,0,1.7,0,2.5c1,0.1,2,0.3,2.9,0.4
				c-0.1-1.9-0.3-3.8-0.4-5.7c-0.1-1.9-2.9-1.9-3,0c-0.1,2-0.4,3.4-1,5.2c1,0,1.9,0,2.9,0c-0.2-1.6-0.4-3.1-0.6-4.7
				c-0.2-1.8-2.9-1.2-2.9,0.4c-0.1,1.8-0.2,3.7-0.3,5.5c1-0.1,2-0.3,2.9-0.4c-0.3-0.7-0.6-1.4-0.9-2.1c-0.6-1.5-2.9-1.4-2.9,0.4
				c-0.1,4.5-4,7.6-8.4,6.6c-1.3-0.3-2.3,1-1.7,2.2c1.2,2.3,1.8,4.3,2.1,6.8c0.7-0.6,1.5-1.1,2.2-1.7c-2.9-1.9-4.9-4.2-6.6-7.2
				c-0.7,0.7-1.4,1.4-2.1,2.1c1.7,1.3,3.4,2.6,5.1,3.8c1.3,1,2.6-0.9,2.1-2.1c-1.8-3.6-3-7.2-3.6-11.2c-0.3-2.4,0.2-5.7-0.9-7.9
				c-1.5-2.9-5.1-3.2-7.8-2.1C33.6,18.9,33.2,20,34,21c0.5,0.5,0.9,1.1,1.4,1.6c1.1,1.3,3.3-0.4,2.4-1.8c-0.6,0.6-1.2,1.1-1.7,1.7
				c0.9-0.4,1.8-0.8,2.7-1.2c-0.2-0.4-0.4-0.8-0.6-1.3c-0.8,0.6-1.6,1.2-2.4,1.8c1.4,1.4,2.1,3,2.2,4.8c0.5-0.6,1-1.3,1.4-1.9
				c-3.5,0.1-6.4,1.1-9.2,3.2c0.6,0.8,1.2,1.6,1.8,2.4c0.5-0.3,1-0.7,1.5-1c-0.6-0.5-1.3-1-1.9-1.4c-0.5,0.8-1.1,1.5-1.6,2.3
				c0.6,0.6,1.2,1.2,1.8,1.8c-0.7,0.8-1.3,1.5-2,2.3c0.6,0.8,1.2,1.6,1.8,2.4c0.9-1,1.6-2,2.2-3.3C34.8,31.5,32.2,30,31.4,31.7
				L31.4,31.7z"/>
		</g>
	</g>
	<g id="XMLID_64_">
		<g id="XMLID_88_">
			<path class="st0" d="M91.4,39.3c0,2.3-0.5,4.5,2.3,4.8c1.5,0.2,2-2.1,0.8-2.8c-0.8-0.4-1.1-0.6-2.1-0.4c-0.8,0.1-1.5,0.6-1.5,1.5
				c0,0.4,0,0.8,0.1,1.2c0,1.2,1.2,1.8,2.3,1.3c1.4-0.7,1.7-2.1,0.9-3.4c-0.3-0.4-0.8-0.8-1.3-0.7c-4.3,0.5-1.9,6.2,1.1,4.1
				c3.3-2.2-1.9-6.8-3.4-2.4c-0.2,0.5,0,1.1,0.4,1.5c0.2,0.1,0.4,0.3,0.5,0.4c0.6,0.5,1.1,0.5,1.8,0.2c0.2-0.1,0.4-0.2,0.6-0.3
				c0.6-0.3,0.8-1.1,0.7-1.7c-1.3-6.7-2.3-13.5-3.1-20.3c-0.9,0.3-1.9,0.5-2.8,0.8c0.5,1.2,0.7,2.4,0.7,3.7c0.1,1.7,2.4,2,2.9,0.4
				c0.4-1.2,0.7-2.2,0.9-3.4c-1-0.1-2-0.3-2.9-0.4c0,1.6,0.1,3,0.4,4.6c0.3,1.5,2.5,1.4,2.9,0c0.3-1.2,0.6-2.4,0.9-3.6
				c-1-0.1-2-0.3-2.9-0.4c-0.1,2.5,0.1,4.9,0.5,7.4c0.3,1.6,2.4,1.2,2.9,0c0.8-2,1.2-3.9,1.5-6c-1,0-2,0-3,0
				c0.1,1.3,0.1,2.6,0.2,3.9c0.1,1.7,2.4,2,2.9,0.4c0.5-1.5,0.7-2.9,0.9-4.5c0.1-1.9-2.8-1.9-3,0c-0.5,6.2-0.8,12.3,0.1,18.5
				c0.3,1.9,3.2,1.1,2.9-0.8C96.6,37,97,31,97.5,25.1c-1,0-2,0-3,0c0,1.3-0.3,2.5-0.8,3.7c1,0.1,2,0.3,2.9,0.4
				c-0.1-1.3-0.1-2.6-0.2-3.9c-0.1-2-2.8-1.9-3,0c-0.2,1.9-0.7,3.4-1.4,5.2c1,0,1.9,0,2.9,0c-0.4-2.2-0.5-4.3-0.4-6.6
				c0.1-1.7-2.5-2-2.9-0.4c-0.3,1.2-0.6,2.4-0.9,3.6c1,0,1.9,0,2.9,0c-0.3-1.3-0.4-2.5-0.3-3.8c0-1.6-2.6-2.1-2.9-0.4
				c-0.2,1.2-0.5,2.3-0.9,3.4c1,0.1,2,0.3,2.9,0.4c-0.1-1.9-0.4-3.4-1.1-5.2c-0.6-1.3-3-0.7-2.8,0.8c0.8,7.1,1.9,14.1,3.2,21.1
				c0.2-0.6,0.5-1.1,0.7-1.7c-0.2,0.1-0.4,0.2-0.6,0.3c0.6,0.1,1.2,0.2,1.8,0.2c-0.6,0-1.2,0-1.9,0c0.8,0.4,1.5,0.9,2.3,1.3
				c0-0.4,0-0.8-0.1-1.2c-0.5,0.5-1,1-1.5,1.5c0.2,0,0.4,0,0.6,0c0.3-0.9,0.5-1.9,0.8-2.8c0.9,0.1,0.7-1.5,0.7-1.8
				C94.4,37.3,91.4,37.3,91.4,39.3L91.4,39.3z"/>
		</g>
	</g>
	<g id="XMLID_65_">
		<g id="XMLID_95_">
			<path class="st0" d="M116.6,42c-1-11.5-2.7-23-4.9-34.4c-0.3-1.8-2.8-1.2-2.9,0.4c-0.2,2.4,0.1,4.4,0.8,6.8
				c0.6,1.8,3.4,1.1,2.9-0.8c-0.5-2-0.8-3.9-0.8-5.9c-1,0.1-2,0.3-2.9,0.4c1.3,8.7,2.9,17.4,4.7,26.1c0.4,1.8,2.8,1.2,2.9-0.4
				c0.3-3.1,0.1-6-0.3-9c-0.2-1.7-3.2-1.3-2.9,0.4c0.4,2.8,0.7,5.6,1.1,8.5c0.2,1.9,3.2,2,3,0c-0.2-2.5-0.4-4.9-0.7-7.4
				c-1,0-2,0-3,0c0.3,3.2,0.6,6.3,0.9,9.5c0.2,1.9,2.8,1.9,3,0c0.2-2.2,0.2-4.3-0.1-6.6c-0.2-1.9-3.2-1.9-3,0
				c0.3,3.1,0.8,6.2,1.5,9.3c0.3,1.4,2.7,1.5,2.9,0c0.3-1.8,0.4-3.5,0.4-5.3c-1,0-2,0-3,0c0.4,4.9,0.4,9.8,0.2,14.7
				c0.5-0.5,1-1,1.5-1.5c-0.3-0.5-0.6-1-1-1.6c-0.1-2-2.8-1.9-3,0c-0.1,1-0.3,2-0.4,3.1c1,0,2,0,3,0c0-0.5-0.1-1.1-0.1-1.6
				c-0.1-1.4-2-2.1-2.8-0.8c-0.6,1-0.7,1.3-0.7,2.5c1,0,2,0,3,0c0-3.1-0.4-6-1.2-9c-0.4-1.6-3.1-1.3-2.9,0.4
				c0.2,1.7,0.4,3.4,0.6,5.1c0.1,1.3,2.1,2.3,2.8,0.8c0.8-1.8,1-3,0.7-5c-1,0.3-1.9,0.5-2.9,0.8c0.1,0.4,0.2,0.9,0.3,1.3
				c0.3,1.2,2.2,1.6,2.7,0.4c0.7-1.4,1-2.6,1.1-4.2c-1,0-2,0-3,0c0.2,1.5,0.1,3.1,0.8,4.4c0.4,0.7,1.4,0.9,2.1,0.5
				c0.1,0,0.1-0.1,0.2-0.1c0.6-0.3,0.9-1.1,0.7-1.7c0-0.1,0-0.1-0.1-0.2c-0.5-1.8-3.4-1.1-2.9,0.8c0,0.1,0,0.1,0.1,0.2
				c0.2-0.6,0.5-1.1,0.7-1.7c-0.1,0-0.1,0.1-0.2,0.1c0.7,0.2,1.4,0.4,2.1,0.5c-0.2-1-0.3-1.9-0.4-2.9c-0.2-1.9-2.8-1.9-3,0
				c-0.2,0.9-0.5,1.8-0.7,2.7c0.9,0.1,1.8,0.2,2.7,0.4c-0.1-0.4-0.2-0.9-0.3-1.3c-0.5-1.9-3.2-1.1-2.9,0.8c-0.1,0.9-0.3,1.8-0.4,2.7
				c0.9,0.3,1.9,0.5,2.8,0.8c-0.2-1.7-0.4-3.4-0.6-5.1c-1,0.1-2,0.3-2.9,0.4c0.7,2.7,1.1,5.4,1.1,8.2c0,1.9,3,1.9,3,0
				c0.1-0.3,0.2-0.7,0.3-1c-0.9-0.3-1.9-0.5-2.8-0.8c0,0.5,0.1,1.1,0.1,1.6c0.1,2,2.8,1.9,3,0c0.1-1,0.3-2,0.4-3.1c-1,0-2,0-3,0
				c0.2,2.7,1.1,4.6,4,4.6c0.8,0,1.5-0.7,1.5-1.5c0.3-4.9,0.2-9.8-0.2-14.7c-0.1-1.9-3.1-2-3,0c0.1,1.5,0,3-0.3,4.5c1,0,1.9,0,2.9,0
				c-0.6-2.8-1-5.6-1.4-8.5c-1,0-2,0-3,0c0.2,2.2,0.3,4.3,0.1,6.6c1,0,2,0,3,0c-0.3-3.2-0.6-6.3-0.9-9.5c-0.2-1.9-3.2-1.9-3,0
				c0.2,2.5,0.4,4.9,0.7,7.4c1,0,2,0,3,0c-0.4-2.8-0.7-5.6-1.1-8.5c-1,0.1-2,0.3-2.9,0.4c0.4,2.8,0.4,5.4,0.2,8.2
				c1-0.1,2-0.3,2.9-0.4c-1.9-8.6-3.4-17.3-4.7-26.1c-0.2-1.7-3-1.3-2.9,0.4c0,2.3,0.3,4.4,0.9,6.7c1-0.3,1.9-0.5,2.9-0.8
				c-0.7-2-0.9-3.9-0.7-6c-1,0.1-2,0.3-2.9,0.4c2.2,11.1,3.8,22.3,4.8,33.6C113.8,43.9,116.8,43.9,116.6,42L116.6,42z"/>
		</g>
	</g>
	<g id="XMLID_66_">
		<g id="XMLID_102_">
			<path class="st0" d="M127.9,35.2c0.7-1.4,1-2.9,0.8-4.5c-0.1-1-1.2-2-2.3-1.3c-1.5,1.1-2.3,2.9-1.7,4.7c0.3,0.9,1.3,1.4,2.2,0.9
				c1.1-0.6,2-1.7,2.2-3c-0.3,0.3-0.7,0.7-1,1c1.4-0.4,2.2-1.8,1.8-3.2c-0.5-1.9-3.4-1.1-2.9,0.8c0-0.1,0.1-0.4,0.2-0.5
				c-0.5,0.1-1,0.5-1,1c-0.1,0.6-0.3,0.9-0.8,1.2c0.7,0.3,1.5,0.6,2.2,0.9c-0.2-0.5-0.2-1,0.3-1.3c-0.8-0.4-1.5-0.9-2.3-1.3
				c0.1,1,0.1,2-0.4,3C124.5,35.5,127.1,37,127.9,35.2L127.9,35.2z"/>
		</g>
	</g>
	<g id="XMLID_67_">
		<g id="XMLID_109_">
			<path class="st0" d="M146.6,44.1c1.1,1.6,2,3.3,2.8,5.1c0.7,1.5,2.6,0.5,2.8-0.8c0.2-2.1-0.1-3.5-0.9-5.4c-0.7-1.6-3-0.4-2.7,1.2
				c0.4,1.9,1,3.1,2.2,4.6c1.1,1.4,3.2-0.4,2.4-1.8c-1.2-2.2-2.5-4.2-4-6.3c-1-1.4-3-0.5-2.7,1.2c0.2,1.5,0.6,2.6,1.2,3.9
				c0.9-0.5,1.7-1,2.6-1.5c-2.4-3.4-4.6-6.9-6.4-10.7c-0.8-1.8-2.6-4.6-2.7-6.6c-0.3-4.8,2.4-2.7,4.9-1.9c1.8,0.6,2.6-2.3,0.8-2.9
				c-2-0.6-4.4-2-6.4-1c-1.8,0.9-2.6,3.4-2.5,5.2c0.1,2.6,1.9,5.6,3,8c1.9,4.1,4.2,7.9,6.8,11.5c1.1,1.6,3.4,0.2,2.6-1.5
				c-0.5-1-0.8-2-0.9-3.1c-0.9,0.4-1.8,0.8-2.7,1.2c1.5,2,2.8,4.1,4,6.3c0.8-0.6,1.6-1.2,2.4-1.8c-0.5-1.1-1-2.2-1.4-3.3
				c-0.9,0.4-1.8,0.8-2.7,1.2c0.2,1.3,0.4,2.6,0.5,3.9c0.9-0.3,1.9-0.5,2.8-0.8c-0.8-1.8-1.7-3.4-2.8-5.1
				C148.1,41,145.5,42.5,146.6,44.1L146.6,44.1z"/>
		</g>
	</g>
</g>
<g id="white_letters">
	<path id="XMLID_21_" class="st1" d="M2.7,25c1,4.9,1.8,9.9,2.2,14.9c0-4.9,0-9.8-0.1-14.7c0,5.6,0.6,11.1,1.8,16.5
		c-0.6-3.7-1.3-7.3-1.9-11c-0.2-0.9-0.3-1.8-0.2-2.7c0.4-2.9,3.4-4.8,6.3-4.9c2.9-0.1,5.6,1.1,8.3,2.3c-2.5-0.6-4.8-2.1-7.4-2.5
		c-2.6-0.4-5.8,1.1-5.7,3.7c0,1,0.4,2.5-0.6,2.8c-0.2-3,3.1-5.5,6.1-5.2s5.5,2.8,6.6,5.6"/>
	<path id="XMLID_20_" class="st1" d="M28.2,31.4c1-0.5,0.4-2.1-0.7-2.6c-2.5-1.1-5.5,1.8-5,4.6s3.4,4.5,6.2,4.4
		c2.7-0.1,5.2-1.8,7.1-3.8c0.8-0.8,1.5-1.8,1.7-2.9c0.4-2.3-1.6-4.4-3.8-5.2c-2.8-1.1-6.2-0.5-8.5,1.5s-3,5.5-1.7,8.2
		c1.3,2.7,4.8,4.2,7.6,3.1c1.4-0.6,2.6-1.7,3.6-2.9c1.3-1.6,2.4-3.6,2.4-5.7c-0.1-3.9-4.9-6.9-8.4-5.2c-3.5,1.7-4.3,7.3-1.2,9.8
		c1.2,1,2.9,1.5,4.4,1c1.9-0.7,2.8-2.7,3.4-4.6c0.6-2.2,0.9-4.6,0.8-6.9c0.6,3.8,2,7.6,3.9,10.9c0.5-2.8-0.2-5.9-1.9-8.1
		c0.9,3.1,2.3,6.1,4.2,8.8c-0.8-3-1.6-6-2.4-9c-0.7,3.7,0.3,7.7,2.7,10.5c0.3-2.9-0.7-5.9-2.7-8.1c1,0.9,1.9,1.9,2.9,2.8"/>
	<path id="XMLID_19_" class="st1" d="M57.2,21.5c-4.4,0.1-8.6,3.4-9.7,7.7C47,31,47.1,33,48.2,34.5c1.4,1.8,3.9,2.2,6.2,2
		c2.8-0.3,5.6-1.4,7.4-3.6c1.7-2.2,2-5.7,0.2-7.8c-1.3-1.5-3.3-2.1-5.2-2.5c-3-0.7-6.6-0.8-8.8,1.4c-2,2-2.1,5.1-2.1,7.9
		c0,2.1,0.2,4.5,2,5.6c0.9,0.5,1.9,0.6,2.9,0.6c2.6,0.1,5.3,0.1,7.7-0.9c2.5-0.9,4.7-2.8,5.3-5.4c0.7-2.8-0.7-5.8-2.9-7.6
		s-5.2-2.4-8.1-2.4c-2,0-4.4,0.8-4.8,2.7c-0.3,1.5,0.8,2.9,1.9,4.1c1.8,1.9,3.8,3.9,6.3,4.8c2.5,0.9,5.7,0.4,7.2-1.9
		c1.2-1.8,0.8-4.2,0.4-6.4c-1.5-7-3.7-13.9-6.5-20.6c2.6,10,5.2,20,7.8,30.1c0.5,2,1,3.9,1.5,5.9c1.7-2.6,1.5-6,0.4-8.9
		s-2.9-5.4-4.4-8.1c-2.3-4.4-3.6-9.4-3.7-14.5C58.7,20,60.5,30.8,64.1,41c0.2-6.2-1.3-12.5-4.3-17.9"/>
	<path id="XMLID_18_" class="st1" d="M73.6,30c-0.3,2.9,0.4,5.9,2,8.4c-0.7-2.9-3.6-4.9-3.8-7.9c-0.1-2.6,2.1-4.8,4.6-5.5
		c2.5-0.6,5.2,0.1,7.6,1.1c-3.3-0.9-7.3-1.5-9.5,1c-1.4,1.6-1.5,4.1-0.8,6.1s2.2,3.7,3.6,5.4c-1.4-2.2-2.3-4.7-2.8-7.3
		c-0.2-0.9-0.3-1.9,0.2-2.8c0.7-1.3,2.5-1.5,4-1.2s2.8,1.1,4.3,1.2"/>
	<path id="XMLID_17_" class="st1" d="M92.7,27.3c-0.3,2.9-0.5,5.8-0.5,8.8c1-2.4,1-5.2-0.1-7.6c-0.5,3.9-0.6,7.8-0.4,11.7
		c0,0.5,0.1,1,0.5,1.2c0.4,0.2,1-0.5,0.5-0.7"/>
	<path id="XMLID_16_" class="st1" d="M90.7,18.8c-0.2,0.6-0.1,1.3,0.2,1.9c1.4,0.5,2.9-1.2,2.3-2.5c-1-0.5-2.4,0.1-2.7,1.2
		c0.9,1.1,3,0.9,3.5-0.5c-0.9-0.5-2.1-0.3-2.9,0.4c0.5,1.1,1.6,1.9,2.8,2c0.5-0.8,0.2-2-0.6-2.6c-0.8-0.5-2-0.3-2.6,0.4
		c0.7,0.8,2.1,0.9,2.9,0.1c0.8-0.7,0.7-2.2-0.1-2.9c-1.2-1-3.4-0.2-3.5,1.4s1.8,2.8,3.2,2.1"/>
	<path id="XMLID_15_" class="st1" d="M111.6,26.8c-3.6-0.5-8.2-0.3-9.9,3c-1.8,3.4,1.6,8,5.4,8c3.9,0,7.1-3.7,7.5-7.5
		c0.1-0.6,0.1-1.3-0.3-1.8c-0.3-0.6-1-0.9-1.6-1.1c-3.5-1.5-8-2.5-10.6,0.2c-1.7,1.7-1.9,4.6-0.8,6.7c1.1,2.1,3.2,3.6,5.5,4.3
		c1.3,0.4,2.6,0.5,3.9,0.1c3.3-1.2,3.6-5.8,3.1-9.3c-1.1-6.8-3.2-13.5-6.4-19.6c1.8,11.6,4.1,23.1,7.1,34.5
		c2.6-4.1-0.8-9.2-2.2-13.8c-2-6.7,0.3-14.3-2.2-20.8c-0.3,10.5-0.5,21.4,3.7,31c0.1-0.6,0.2-1.2,0.3-1.8"/>
	<path id="XMLID_14_" class="st1" d="M122.5,30.7c2-0.9,4.1-1.7,6.1-2.6c1.7-0.7,3.8-2.2,3.3-4c-0.7-2.2-3.9-1.6-5.9-0.5
		c-1.9,1-3.9,2.1-5,4c-2.1,3.7,0.8,8.8,4.9,10.3s8.5,0.6,12.7-0.5c-3.7,0.5-7.3,0.9-11,1c-1.6,0-3.2,0-4.5-0.8
		c-0.8-0.5-1.3-1.2-1.7-2c-1.8-3.2-0.9-7.9,2.3-9.7c3.2-1.8,8.1,0.6,8,4.3c-0.1,2.2-1.8,4.2-3.8,5.2c-2,1-4.3,1.2-6.5,1.4
		c4.8,0.3,9.7-2.5,11.8-6.8c0.2-0.3,0.3-0.7,0.2-1c-0.1-0.3-0.3-0.6-0.6-0.8c-2.5-2-6.4-1.9-8.7,0.3s-2.7,6.1-0.8,8.6
		c1.1,1.5,2.7,2.4,4.4,3.2c3.5,1.7,8,3,11,0.5"/>
	<path id="XMLID_13_" class="st1" d="M141.3,29.3c-0.1,3.6,1.4,7.2,4,9.8c-2.3-4.2-3.7-8.9-4-13.7c-0.1-0.9,0-1.9,0.7-2.4
		c0.5-0.3,1.1-0.3,1.7-0.3c1.8,0,3.6,0.1,5.4,0.1c-3.5-1.5-7.5,2-7.8,5.7c-0.2,3.8,2.2,7.2,5,9.7c-1.9-4.9-3.8-9.8-5.8-14.6
		c4.8-1.7,10.2-1.3,14.7,1"/>
	<path id="XMLID_12_" class="st1" d="M175.5,25.4c-6.2-0.4-12.6,0.4-18.5,2.4c3,6.7,15,7.7,14.8,15c-0.2,5.2-6.6,7.4-11.8,8.1
		c-9.1,1.4-18.3,2.7-27.6,2.6c-12-0.2-23.8-3-35.8-4.1c-7.7-0.7-15.4-0.8-23.1-0.8c-22.5-0.1-45-0.2-67.6-0.3
		c11.6,6.3,25.8,0.7,39,0.3c6.9-0.2,13.8,1.1,20.6,1.5c13.3,0.8,26.7-1.6,40,0.1c5.6,0.7,11.1,2.2,16.7,2.9
		c14,1.7,28.1-1.6,41.9-4.8c2.5-0.6,5-1.2,7-2.8c2-1.5,3.3-4.3,2.4-6.7c-2.1-5.5-13-3.9-13.6-9.8c-0.3-2.4,1.9-4.6,4.3-5.3
		c2.4-0.6,4.9-0.1,7.3,0.3c-3.2,0.5-5.6,1.4-8.8,1.9c-1.6,0.3-3.4,0.7-4.1,2.1c-1,1.9,0.9,4.2,2.8,5s4.3,1.1,6,2.4
		c3.2,2.5,2.6,7.7-0.1,10.7c-2.7,3-6.8,4.2-10.6,5.3c-4.1,1.2-8.3,2.4-12.5,2.9c-8.8,1-17.7-1-26.4-2.3c-17.9-2.7-36.1-2.7-54.2-2.7
		c-19.4,0-38.9,0.1-58.3,0.1c52.8-6.4,107.3,10.5,158.9-2.1c3.1-0.8,6.8-2.5,6.7-5.6c-0.1-5.1-8.7-4.3-11.9-8.3
		c-2.2-2.8-0.8-7.3,2.3-9.1c3.1-1.8,7.1-1.1,10.1,0.8"/>
	<path id="XMLID_31_" class="st1" d="M4.7,25c1,4.9,1.8,9.9,2.2,14.9c0-4.9,0-9.8-0.1-14.7c0,5.6,0.6,11.1,1.8,16.5
		c-0.6-3.7-1.3-7.3-1.9-11c-0.2-0.9-0.3-1.8-0.2-2.7c0.4-2.9,3.4-4.8,6.3-4.9c2.9-0.1,5.6,1.1,8.3,2.3c-2.5-0.6-4.8-2.1-7.4-2.5
		c-2.6-0.4-5.8,1.1-5.7,3.7c0,1,0.4,2.5-0.6,2.8c-0.2-3,3.1-5.5,6.1-5.2s5.5,2.8,6.6,5.6"/>
	<path id="XMLID_30_" class="st1" d="M30.2,31.4c1-0.5,0.4-2.1-0.7-2.6c-2.5-1.1-5.5,1.8-5,4.6s3.4,4.5,6.2,4.4
		c2.7-0.1,5.2-1.8,7.1-3.8c0.8-0.8,1.5-1.8,1.7-2.9c0.4-2.3-1.6-4.4-3.8-5.2c-2.8-1.1-6.2-0.5-8.5,1.5s-3,5.5-1.7,8.2
		c1.3,2.7,4.8,4.2,7.6,3.1c1.4-0.6,2.6-1.7,3.6-2.9c1.3-1.6,2.4-3.6,2.4-5.7c-0.1-3.9-4.9-6.9-8.4-5.2c-3.5,1.7-4.3,7.3-1.2,9.8
		c1.2,1,2.9,1.5,4.4,1c1.9-0.7,2.8-2.7,3.4-4.6c0.6-2.2,0.9-4.6,0.8-6.9c0.6,3.8,2,7.6,3.9,10.9c0.5-2.8-0.2-5.9-1.9-8.1
		c0.9,3.1,2.3,6.1,4.2,8.8c-0.8-3-1.6-6-2.4-9c-0.7,3.7,0.3,7.7,2.7,10.5c0.3-2.9-0.7-5.9-2.7-8.1c1,0.9,1.9,1.9,2.9,2.8"/>
	<path id="XMLID_29_" class="st1" d="M59.2,21.5c-4.4,0.1-8.6,3.4-9.7,7.7C49,31,49.1,33,50.2,34.5c1.4,1.8,3.9,2.2,6.2,2
		c2.8-0.3,5.6-1.4,7.4-3.6s2-5.7,0.2-7.8c-1.3-1.5-3.3-2.1-5.2-2.5c-3-0.7-6.6-0.8-8.8,1.4c-2,2-2.1,5.1-2.1,7.9
		c0,2.1,0.2,4.5,2,5.6c0.9,0.5,1.9,0.6,2.9,0.6c2.6,0.1,5.3,0.1,7.7-0.9c2.5-0.9,4.7-2.8,5.3-5.4c0.7-2.8-0.7-5.8-2.9-7.6
		c-2.2-1.8-5.2-2.4-8.1-2.4c-2,0-4.4,0.8-4.8,2.7c-0.3,1.5,0.8,2.9,1.9,4.1c1.8,1.9,3.8,3.9,6.3,4.8c2.5,0.9,5.7,0.4,7.2-1.9
		c1.2-1.8,0.8-4.2,0.4-6.4c-1.5-7-3.7-13.9-6.5-20.6c2.6,10,5.2,20,7.8,30.1c0.5,2,1,3.9,1.5,5.9c1.7-2.6,1.5-6,0.4-8.9
		s-2.9-5.4-4.4-8.1c-2.3-4.4-3.6-9.4-3.7-14.5C60.7,20,62.5,30.8,66.1,41c0.2-6.2-1.3-12.5-4.3-17.9"/>
	<path id="XMLID_28_" class="st1" d="M75.6,30c-0.3,2.9,0.4,5.9,2,8.4c-0.7-2.9-3.6-4.9-3.8-7.9c-0.1-2.6,2.1-4.8,4.6-5.5
		c2.5-0.6,5.2,0.1,7.6,1.1c-3.3-0.9-7.3-1.5-9.5,1c-1.4,1.6-1.5,4.1-0.8,6.1s2.2,3.7,3.6,5.4c-1.4-2.2-2.3-4.7-2.8-7.3
		c-0.2-0.9-0.3-1.9,0.2-2.8c0.7-1.3,2.5-1.5,4-1.2s2.8,1.1,4.3,1.2"/>
	<path id="XMLID_27_" class="st1" d="M94.7,27.3c-0.3,2.9-0.5,5.8-0.5,8.8c1-2.4,1-5.2-0.1-7.6c-0.5,3.9-0.6,7.8-0.4,11.7
		c0,0.5,0.1,1,0.5,1.2c0.4,0.2,1-0.5,0.5-0.7"/>
	<path id="XMLID_26_" class="st1" d="M92.7,18.8c-0.2,0.6-0.1,1.3,0.2,1.9c1.4,0.5,2.9-1.2,2.3-2.5c-1-0.5-2.4,0.1-2.7,1.2
		c0.9,1.1,3,0.9,3.5-0.5c-0.9-0.5-2.1-0.3-2.9,0.4c0.5,1.1,1.6,1.9,2.8,2c0.5-0.8,0.2-2-0.6-2.6c-0.8-0.5-2-0.3-2.6,0.4
		c0.7,0.8,2.1,0.9,2.9,0.1c0.8-0.7,0.7-2.2-0.1-2.9c-1.2-1-3.4-0.2-3.5,1.4s1.8,2.8,3.2,2.1"/>
	<path id="XMLID_25_" class="st1" d="M113.6,26.8c-3.6-0.5-8.2-0.3-9.9,3c-1.8,3.4,1.6,8,5.4,8c3.9,0,7.1-3.7,7.5-7.5
		c0.1-0.6,0.1-1.3-0.3-1.8c-0.3-0.6-1-0.9-1.6-1.1c-3.5-1.5-8-2.5-10.6,0.2c-1.7,1.7-1.9,4.6-0.8,6.7c1.1,2.1,3.2,3.6,5.5,4.3
		c1.3,0.4,2.6,0.5,3.9,0.1c3.3-1.2,3.6-5.8,3.1-9.3c-1.1-6.8-3.2-13.5-6.4-19.6c1.8,11.6,4.1,23.1,7.1,34.5
		c2.6-4.1-0.8-9.2-2.2-13.8c-2-6.7,0.3-14.3-2.2-20.8c-0.3,10.5-0.5,21.4,3.7,31c0.1-0.6,0.2-1.2,0.3-1.8"/>
	<path id="XMLID_24_" class="st1" d="M124.5,30.7c2-0.9,4.1-1.7,6.1-2.6c1.7-0.7,3.8-2.2,3.3-4c-0.7-2.2-3.9-1.6-5.9-0.5
		c-1.9,1-3.9,2.1-5,4c-2.1,3.7,0.8,8.8,4.9,10.3s8.5,0.6,12.7-0.5c-3.7,0.5-7.3,0.9-11,1c-1.6,0-3.2,0-4.5-0.8
		c-0.8-0.5-1.3-1.2-1.7-2c-1.8-3.2-0.9-7.9,2.3-9.7c3.2-1.8,8.1,0.6,8,4.3c-0.1,2.2-1.8,4.2-3.8,5.2c-2,1-4.3,1.2-6.5,1.4
		c4.8,0.3,9.7-2.5,11.8-6.8c0.2-0.3,0.3-0.7,0.2-1c-0.1-0.3-0.3-0.6-0.6-0.8c-2.5-2-6.4-1.9-8.7,0.3s-2.7,6.1-0.8,8.6
		c1.1,1.5,2.7,2.4,4.4,3.2c3.5,1.7,8,3,11,0.5"/>
	<path id="XMLID_23_" class="st1" d="M143.3,29.3c-0.1,3.6,1.4,7.2,4,9.8c-2.3-4.2-3.7-8.9-4-13.7c-0.1-0.9,0-1.9,0.7-2.4
		c0.5-0.3,1.1-0.3,1.7-0.3c1.8,0,3.6,0.1,5.4,0.1c-3.5-1.5-7.5,2-7.8,5.7c-0.2,3.8,2.2,7.2,5,9.7c-1.9-4.9-3.8-9.8-5.8-14.6
		c4.8-1.7,10.2-1.3,14.7,1"/>
	<path id="XMLID_22_" class="st1" d="M177.5,25.4c-6.2-0.4-12.6,0.4-18.5,2.4c3,6.7,15,7.7,14.8,15c-0.2,5.2-6.6,7.4-11.8,8.1
		c-9.1,1.4-18.3,2.7-27.6,2.6c-12-0.2-23.8-3-35.8-4.1c-7.7-0.7-15.4-0.8-23.1-0.8c-22.5-0.1-45-0.2-67.6-0.3
		c11.6,6.3,25.8,0.7,39,0.3c6.9-0.2,13.8,1.1,20.6,1.5c13.3,0.8,26.7-1.6,40,0.1c5.6,0.7,11.1,2.2,16.7,2.9
		c14,1.7,28.1-1.6,41.9-4.8c2.5-0.6,5-1.2,7-2.8c2-1.5,3.3-4.3,2.4-6.7c-2.1-5.5-13-3.9-13.6-9.8c-0.3-2.4,1.9-4.6,4.3-5.3
		c2.4-0.6,4.9-0.1,7.3,0.3c-3.2,0.5-5.6,1.4-8.8,1.9c-1.6,0.3-3.4,0.7-4.1,2.1c-1,1.9,0.9,4.2,2.8,5s4.3,1.1,6,2.4
		c3.2,2.5,2.6,7.7-0.1,10.7c-2.7,3-6.8,4.2-10.6,5.3c-4.1,1.2-8.3,2.4-12.5,2.9c-8.8,1-17.7-1-26.4-2.3c-17.9-2.7-36.1-2.7-54.2-2.7
		c-19.4,0-38.9,0.1-58.3,0.1c52.8-6.4,107.3,10.5,158.9-2.1c3.1-0.8,6.8-2.5,6.7-5.6c-0.1-5.1-8.7-4.3-11.9-8.3
		c-2.2-2.8-0.8-7.3,2.3-9.1c3.1-1.8,7.1-1.1,10.1,0.8"/>
	<path id="XMLID_41_" class="st1" d="M2.7,26c1,4.9,1.8,9.9,2.2,14.9c0-4.9,0-9.8-0.1-14.7c0,5.6,0.6,11.1,1.8,16.5
		c-0.6-3.7-1.3-7.3-1.9-11c-0.2-0.9-0.3-1.8-0.2-2.7c0.4-2.9,3.4-4.8,6.3-4.9c2.9-0.1,5.6,1.1,8.3,2.3c-2.5-0.6-4.8-2.1-7.4-2.5
		c-2.6-0.4-5.8,1.1-5.7,3.7c0,1,0.4,2.5-0.6,2.8c-0.2-3,3.1-5.5,6.1-5.2s5.5,2.8,6.6,5.6"/>
	<path id="XMLID_40_" class="st1" d="M28.2,32.4c1-0.5,0.4-2.1-0.7-2.6c-2.5-1.1-5.5,1.8-5,4.6s3.4,4.5,6.2,4.4
		c2.7-0.1,5.2-1.8,7.1-3.8c0.8-0.8,1.5-1.8,1.7-2.9c0.4-2.3-1.6-4.4-3.8-5.2c-2.8-1.1-6.2-0.5-8.5,1.5s-3,5.5-1.7,8.2
		c1.3,2.7,4.8,4.2,7.6,3.1c1.4-0.6,2.6-1.7,3.6-2.9c1.3-1.6,2.4-3.6,2.4-5.7c-0.1-3.9-4.9-6.9-8.4-5.2c-3.5,1.7-4.3,7.3-1.2,9.8
		c1.2,1,2.9,1.5,4.4,1c1.9-0.7,2.8-2.7,3.4-4.6c0.6-2.2,0.9-4.6,0.8-6.9c0.6,3.8,2,7.6,3.9,10.9c0.5-2.8-0.2-5.9-1.9-8.1
		c0.9,3.1,2.3,6.1,4.2,8.8c-0.8-3-1.6-6-2.4-9c-0.7,3.7,0.3,7.7,2.7,10.5c0.3-2.9-0.7-5.9-2.7-8.1c1,0.9,1.9,1.9,2.9,2.8"/>
	<path id="XMLID_39_" class="st1" d="M57.2,22.5c-4.4,0.1-8.6,3.4-9.7,7.7C47,32,47.1,34,48.2,35.5c1.4,1.8,3.9,2.2,6.2,2
		c2.8-0.3,5.6-1.4,7.4-3.6c1.7-2.2,2-5.7,0.2-7.8c-1.3-1.5-3.3-2.1-5.2-2.5c-3-0.7-6.6-0.8-8.8,1.4c-2,2-2.1,5.1-2.1,7.9
		c0,2.1,0.2,4.5,2,5.6c0.9,0.5,1.9,0.6,2.9,0.6c2.6,0.1,5.3,0.1,7.7-0.9c2.5-0.9,4.7-2.8,5.3-5.4c0.7-2.8-0.7-5.8-2.9-7.6
		s-5.2-2.4-8.1-2.4c-2,0-4.4,0.8-4.8,2.7c-0.3,1.5,0.8,2.9,1.9,4.1c1.8,1.9,3.8,3.9,6.3,4.8c2.5,0.9,5.7,0.4,7.2-1.9
		c1.2-1.8,0.8-4.2,0.4-6.4c-1.5-7-3.7-13.9-6.5-20.6c2.6,10,5.2,20,7.8,30.1c0.5,2,1,3.9,1.5,5.9c1.7-2.6,1.5-6,0.4-8.9
		s-2.9-5.4-4.4-8.1c-2.3-4.4-3.6-9.4-3.7-14.5C58.7,21,60.5,31.8,64.1,42c0.2-6.2-1.3-12.5-4.3-17.9"/>
	<path id="XMLID_38_" class="st1" d="M73.6,31c-0.3,2.9,0.4,5.9,2,8.4c-0.7-2.9-3.6-4.9-3.8-7.9c-0.1-2.6,2.1-4.8,4.6-5.5
		c2.5-0.6,5.2,0.1,7.6,1.1c-3.3-0.9-7.3-1.5-9.5,1c-1.4,1.6-1.5,4.1-0.8,6.1s2.2,3.7,3.6,5.4c-1.4-2.2-2.3-4.7-2.8-7.3
		c-0.2-0.9-0.3-1.9,0.2-2.8c0.7-1.3,2.5-1.5,4-1.2s2.8,1.1,4.3,1.2"/>
	<path id="XMLID_37_" class="st1" d="M92.7,28.3c-0.3,2.9-0.5,5.8-0.5,8.8c1-2.4,1-5.2-0.1-7.6c-0.5,3.9-0.6,7.8-0.4,11.7
		c0,0.5,0.1,1,0.5,1.2c0.4,0.2,1-0.5,0.5-0.7"/>
	<path id="XMLID_36_" class="st1" d="M90.7,19.8c-0.2,0.6-0.1,1.3,0.2,1.9c1.4,0.5,2.9-1.2,2.3-2.5c-1-0.5-2.4,0.1-2.7,1.2
		c0.9,1.1,3,0.9,3.5-0.5c-0.9-0.5-2.1-0.3-2.9,0.4c0.5,1.1,1.6,1.9,2.8,2c0.5-0.8,0.2-2-0.6-2.6c-0.8-0.5-2-0.3-2.6,0.4
		c0.7,0.8,2.1,0.9,2.9,0.1c0.8-0.7,0.7-2.2-0.1-2.9c-1.2-1-3.4-0.2-3.5,1.4s1.8,2.8,3.2,2.1"/>
	<path id="XMLID_35_" class="st1" d="M111.6,27.8c-3.6-0.5-8.2-0.3-9.9,3c-1.8,3.4,1.6,8,5.4,8c3.9,0,7.1-3.7,7.5-7.5
		c0.1-0.6,0.1-1.3-0.3-1.8c-0.3-0.6-1-0.9-1.6-1.1c-3.5-1.5-8-2.5-10.6,0.2c-1.7,1.7-1.9,4.6-0.8,6.7c1.1,2.1,3.2,3.6,5.5,4.3
		c1.3,0.4,2.6,0.5,3.9,0.1c3.3-1.2,3.6-5.8,3.1-9.3c-1.1-6.8-3.2-13.5-6.4-19.6c1.8,11.6,4.1,23.1,7.1,34.5
		c2.6-4.1-0.8-9.2-2.2-13.8c-2-6.7,0.3-14.3-2.2-20.8c-0.3,10.5-0.5,21.4,3.7,31c0.1-0.6,0.2-1.2,0.3-1.8"/>
	<path id="XMLID_34_" class="st1" d="M122.5,31.7c2-0.9,4.1-1.7,6.1-2.6c1.7-0.7,3.8-2.2,3.3-4c-0.7-2.2-3.9-1.6-5.9-0.5
		c-1.9,1-3.9,2.1-5,4c-2.1,3.7,0.8,8.8,4.9,10.3s8.5,0.6,12.7-0.5c-3.7,0.5-7.3,0.9-11,1c-1.6,0-3.2,0-4.5-0.8
		c-0.8-0.5-1.3-1.2-1.7-2c-1.8-3.2-0.9-7.9,2.3-9.7c3.2-1.8,8.1,0.6,8,4.3c-0.1,2.2-1.8,4.2-3.8,5.2c-2,1-4.3,1.2-6.5,1.4
		c4.8,0.3,9.7-2.5,11.8-6.8c0.2-0.3,0.3-0.7,0.2-1c-0.1-0.3-0.3-0.6-0.6-0.8c-2.5-2-6.4-1.9-8.7,0.3s-2.7,6.1-0.8,8.6
		c1.1,1.5,2.7,2.4,4.4,3.2c3.5,1.7,8,3,11,0.5"/>
	<path id="XMLID_33_" class="st1" d="M141.3,30.3c-0.1,3.6,1.4,7.2,4,9.8c-2.3-4.2-3.7-8.9-4-13.7c-0.1-0.9,0-1.9,0.7-2.4
		c0.5-0.3,1.1-0.3,1.7-0.3c1.8,0,3.6,0.1,5.4,0.1c-3.5-1.5-7.5,2-7.8,5.7c-0.2,3.8,2.2,7.2,5,9.7c-1.9-4.9-3.8-9.8-5.8-14.6
		c4.8-1.7,10.2-1.3,14.7,1"/>
	<path id="XMLID_32_" class="st1" d="M175.5,26.4c-6.2-0.4-12.6,0.4-18.5,2.4c3,6.7,15,7.7,14.8,15c-0.2,5.2-6.6,7.4-11.8,8.1
		c-9.1,1.4-18.3,2.7-27.6,2.6c-12-0.2-23.8-3-35.8-4.1c-7.7-0.7-15.4-0.8-23.1-0.8c-22.5-0.1-45-0.2-67.6-0.3
		c11.6,6.3,25.8,0.7,39,0.3c6.9-0.2,13.8,1.1,20.6,1.5c13.3,0.8,26.7-1.6,40,0.1c5.6,0.7,11.1,2.2,16.7,2.9
		c14,1.7,28.1-1.6,41.9-4.8c2.5-0.6,5-1.2,7-2.8c2-1.5,3.3-4.3,2.4-6.7c-2.1-5.5-13-3.9-13.6-9.8c-0.3-2.4,1.9-4.6,4.3-5.3
		c2.4-0.6,4.9-0.1,7.3,0.3c-3.2,0.5-5.6,1.4-8.8,1.9c-1.6,0.3-3.4,0.7-4.1,2.1c-1,1.9,0.9,4.2,2.8,5s4.3,1.1,6,2.4
		c3.2,2.5,2.6,7.7-0.1,10.7c-2.7,3-6.8,4.2-10.6,5.3c-4.1,1.2-8.3,2.4-12.5,2.9c-8.8,1-17.7-1-26.4-2.3c-17.9-2.7-36.1-2.7-54.2-2.7
		c-19.4,0-38.9,0.1-58.3,0.1c52.8-6.4,107.3,10.5,158.9-2.1c3.1-0.8,6.8-2.5,6.7-5.6c-0.1-5.1-8.7-4.3-11.9-8.3
		c-2.2-2.8-0.8-7.3,2.3-9.1c3.1-1.8,7.1-1.1,10.1,0.8"/>
	<path id="XMLID_51_" class="st1" d="M4.7,27c1,4.9,1.8,9.9,2.2,14.9c0-4.9,0-9.8-0.1-14.7c0,5.6,0.6,11.1,1.8,16.5
		c-0.6-3.7-1.3-7.3-1.9-11c-0.2-0.9-0.3-1.8-0.2-2.7c0.4-2.9,3.4-4.8,6.3-4.9c2.9-0.1,5.6,1.1,8.3,2.3c-2.5-0.6-4.8-2.1-7.4-2.5
		c-2.6-0.4-5.8,1.1-5.7,3.7c0,1,0.4,2.5-0.6,2.8c-0.2-3,3.1-5.5,6.1-5.2s5.5,2.8,6.6,5.6"/>
	<path id="XMLID_50_" class="st1" d="M30.2,33.4c1-0.5,0.4-2.1-0.7-2.6c-2.5-1.1-5.5,1.8-5,4.6c0.5,2.7,3.4,4.5,6.2,4.4
		c2.7-0.1,5.2-1.8,7.1-3.8c0.8-0.8,1.5-1.8,1.7-2.9c0.4-2.3-1.6-4.4-3.8-5.2c-2.8-1.1-6.2-0.5-8.5,1.5s-3,5.5-1.7,8.2
		c1.3,2.7,4.8,4.2,7.6,3.1c1.4-0.6,2.6-1.7,3.6-2.9c1.3-1.6,2.4-3.6,2.4-5.7c-0.1-3.9-4.9-6.9-8.4-5.2c-3.5,1.7-4.3,7.3-1.2,9.8
		c1.2,1,2.9,1.5,4.4,1c1.9-0.7,2.8-2.7,3.4-4.6c0.6-2.2,0.9-4.6,0.8-6.9c0.6,3.8,2,7.6,3.9,10.9c0.5-2.8-0.2-5.9-1.9-8.1
		c0.9,3.1,2.3,6.1,4.2,8.8c-0.8-3-1.6-6-2.4-9c-0.7,3.7,0.3,7.7,2.7,10.5c0.3-2.9-0.7-5.9-2.7-8.1c1,0.9,1.9,1.9,2.9,2.8"/>
	<path id="XMLID_49_" class="st1" d="M59.2,23.5c-4.4,0.1-8.6,3.4-9.7,7.7C49,33,49.1,35,50.2,36.5c1.4,1.8,3.9,2.2,6.2,2
		c2.8-0.3,5.6-1.4,7.4-3.6s2-5.7,0.2-7.8c-1.3-1.5-3.3-2.1-5.2-2.5c-3-0.7-6.6-0.8-8.8,1.4c-2,2-2.1,5.1-2.1,7.9
		c0,2.1,0.2,4.5,2,5.6c0.9,0.5,1.9,0.6,2.9,0.6c2.6,0.1,5.3,0.1,7.7-0.9c2.5-0.9,4.7-2.8,5.3-5.4c0.7-2.8-0.7-5.8-2.9-7.6
		c-2.2-1.8-5.2-2.4-8.1-2.4c-2,0-4.4,0.8-4.8,2.7c-0.3,1.5,0.8,2.9,1.9,4.1c1.8,1.9,3.8,3.9,6.3,4.8c2.5,0.9,5.7,0.4,7.2-1.9
		c1.2-1.8,0.8-4.2,0.4-6.4c-1.5-7-3.7-13.9-6.5-20.6c2.6,10,5.2,20,7.8,30.1c0.5,2,1,3.9,1.5,5.9c1.7-2.6,1.5-6,0.4-8.9
		s-2.9-5.4-4.4-8.1c-2.3-4.4-3.6-9.4-3.7-14.5C60.7,22,62.5,32.8,66.1,43c0.2-6.2-1.3-12.5-4.3-17.9"/>
	<path id="XMLID_48_" class="st1" d="M75.6,32c-0.3,2.9,0.4,5.9,2,8.4c-0.7-2.9-3.6-4.9-3.8-7.9c-0.1-2.6,2.1-4.8,4.6-5.5
		c2.5-0.6,5.2,0.1,7.6,1.1c-3.3-0.9-7.3-1.5-9.5,1c-1.4,1.6-1.5,4.1-0.8,6.1s2.2,3.7,3.6,5.4c-1.4-2.2-2.3-4.7-2.8-7.3
		c-0.2-0.9-0.3-1.9,0.2-2.8c0.7-1.3,2.5-1.5,4-1.2s2.8,1.1,4.3,1.2"/>
	<path id="XMLID_47_" class="st1" d="M94.7,29.3c-0.3,2.9-0.5,5.8-0.5,8.8c1-2.4,1-5.2-0.1-7.6c-0.5,3.9-0.6,7.8-0.4,11.7
		c0,0.5,0.1,1,0.5,1.2c0.4,0.2,1-0.5,0.5-0.7"/>
	<path id="XMLID_46_" class="st1" d="M92.7,20.8c-0.2,0.6-0.1,1.3,0.2,1.9c1.4,0.5,2.9-1.2,2.3-2.5c-1-0.5-2.4,0.1-2.7,1.2
		c0.9,1.1,3,0.9,3.5-0.5c-0.9-0.5-2.1-0.3-2.9,0.4c0.5,1.1,1.6,1.9,2.8,2c0.5-0.8,0.2-2-0.6-2.6c-0.8-0.5-2-0.3-2.6,0.4
		c0.7,0.8,2.1,0.9,2.9,0.1c0.8-0.7,0.7-2.2-0.1-2.9c-1.2-1-3.4-0.2-3.5,1.4s1.8,2.8,3.2,2.1"/>
	<path id="XMLID_45_" class="st1" d="M113.6,28.8c-3.6-0.5-8.2-0.3-9.9,3c-1.8,3.4,1.6,8,5.4,8c3.9,0,7.1-3.7,7.5-7.5
		c0.1-0.6,0.1-1.3-0.3-1.8c-0.3-0.6-1-0.9-1.6-1.1c-3.5-1.5-8-2.5-10.6,0.2c-1.7,1.7-1.9,4.6-0.8,6.7c1.1,2.1,3.2,3.6,5.5,4.3
		c1.3,0.4,2.6,0.5,3.9,0.1c3.3-1.2,3.6-5.8,3.1-9.3c-1.1-6.8-3.2-13.5-6.4-19.6c1.8,11.6,4.1,23.1,7.1,34.5
		c2.6-4.1-0.8-9.2-2.2-13.8c-2-6.7,0.3-14.3-2.2-20.8c-0.3,10.5-0.5,21.4,3.7,31c0.1-0.6,0.2-1.2,0.3-1.8"/>
	<path id="XMLID_44_" class="st1" d="M124.5,32.7c2-0.9,4.1-1.7,6.1-2.6c1.7-0.7,3.8-2.2,3.3-4c-0.7-2.2-3.9-1.6-5.9-0.5
		c-1.9,1-3.9,2.1-5,4c-2.1,3.7,0.8,8.8,4.9,10.3s8.5,0.6,12.7-0.5c-3.7,0.5-7.3,0.9-11,1c-1.6,0-3.2,0-4.5-0.8
		c-0.8-0.5-1.3-1.2-1.7-2c-1.8-3.2-0.9-7.9,2.3-9.7c3.2-1.8,8.1,0.6,8,4.3c-0.1,2.2-1.8,4.2-3.8,5.2c-2,1-4.3,1.2-6.5,1.4
		c4.8,0.3,9.7-2.5,11.8-6.8c0.2-0.3,0.3-0.7,0.2-1c-0.1-0.3-0.3-0.6-0.6-0.8c-2.5-2-6.4-1.9-8.7,0.3s-2.7,6.1-0.8,8.6
		c1.1,1.5,2.7,2.4,4.4,3.2c3.5,1.7,8,3,11,0.5"/>
	<path id="XMLID_43_" class="st1" d="M143.3,31.3c-0.1,3.6,1.4,7.2,4,9.8c-2.3-4.2-3.7-8.9-4-13.7c-0.1-0.9,0-1.9,0.7-2.4
		c0.5-0.3,1.1-0.3,1.7-0.3c1.8,0,3.6,0.1,5.4,0.1c-3.5-1.5-7.5,2-7.8,5.7c-0.2,3.8,2.2,7.2,5,9.7c-1.9-4.9-3.8-9.8-5.8-14.6
		c4.8-1.7,10.2-1.3,14.7,1"/>
	<path id="XMLID_42_" class="st1" d="M177.5,27.4c-6.2-0.4-12.6,0.4-18.5,2.4c3,6.7,15,7.7,14.8,15c-0.2,5.2-6.6,7.4-11.8,8.1
		c-9.1,1.4-18.3,2.7-27.6,2.6c-12-0.2-23.8-3-35.8-4.1c-7.7-0.7-15.4-0.8-23.1-0.8c-22.5-0.1-45-0.2-67.6-0.3
		c11.6,6.3,25.8,0.7,39,0.3c6.9-0.2,13.8,1.1,20.6,1.5c13.3,0.8,26.7-1.6,40,0.1c5.6,0.7,11.1,2.2,16.7,2.9
		c14,1.7,28.1-1.6,41.9-4.8c2.5-0.6,5-1.2,7-2.8c2-1.5,3.3-4.3,2.4-6.7c-2.1-5.5-13-3.9-13.6-9.8c-0.3-2.4,1.9-4.6,4.3-5.3
		c2.4-0.6,4.9-0.1,7.3,0.3c-3.2,0.5-5.6,1.4-8.8,1.9c-1.6,0.3-3.4,0.7-4.1,2.1c-1,1.9,0.9,4.2,2.8,5s4.3,1.1,6,2.4
		c3.2,2.5,2.6,7.7-0.1,10.7c-2.7,3-6.8,4.2-10.6,5.3c-4.1,1.2-8.3,2.4-12.5,2.9c-8.8,1-17.7-1-26.4-2.3c-17.9-2.7-36.1-2.7-54.2-2.7
		c-19.4,0-38.9,0.1-58.3,0.1c52.8-6.4,107.3,10.5,158.9-2.1c3.1-0.8,6.8-2.5,6.7-5.6c-0.1-5.1-8.7-4.3-11.9-8.3
		c-2.2-2.8-0.8-7.3,2.3-9.1c3.1-1.8,7.1-1.1,10.1,0.8"/>
	<path id="XMLID_61_" class="st1" d="M3.7,24c1,4.9,1.8,9.9,2.2,14.9c0-4.9,0-9.8-0.1-14.7c0,5.6,0.6,11.1,1.8,16.5
		c-0.6-3.7-1.3-7.3-1.9-11c-0.2-0.9-0.3-1.8-0.2-2.7c0.4-2.9,3.4-4.8,6.3-4.9c2.9-0.1,5.6,1.1,8.3,2.3c-2.5-0.6-4.8-2.1-7.4-2.5
		c-2.6-0.4-5.8,1.1-5.7,3.7c0,1,0.4,2.5-0.6,2.8c-0.2-3,3.1-5.5,6.1-5.2s5.5,2.8,6.6,5.6"/>
	<path id="XMLID_60_" class="st1" d="M29.3,30.4c1-0.5,0.4-2.1-0.7-2.6c-2.5-1.1-5.5,1.8-5,4.6s3.4,4.5,6.2,4.4
		c2.7-0.1,5.2-1.8,7.1-3.8c0.8-0.8,1.5-1.8,1.7-2.9c0.4-2.3-1.6-4.4-3.8-5.2c-2.8-1.1-6.2-0.5-8.5,1.5s-3,5.5-1.7,8.2
		s4.8,4.2,7.6,3.1c1.4-0.6,2.6-1.7,3.6-2.9c1.3-1.6,2.4-3.6,2.4-5.7c-0.1-3.9-4.9-6.9-8.4-5.2c-3.5,1.7-4.3,7.3-1.2,9.8
		c1.2,1,2.9,1.5,4.4,1c1.9-0.7,2.8-2.7,3.4-4.6c0.6-2.2,0.9-4.6,0.8-6.9c0.6,3.8,2,7.6,3.9,10.9c0.5-2.8-0.2-5.9-1.9-8.1
		c0.9,3.1,2.3,6.1,4.2,8.8c-0.8-3-1.6-6-2.4-9c-0.7,3.7,0.3,7.7,2.7,10.5c0.3-2.9-0.7-5.9-2.7-8.1c1,0.9,1.9,1.9,2.9,2.8"/>
	<path id="XMLID_59_" class="st1" d="M58.2,20.5c-4.4,0.1-8.6,3.4-9.7,7.7c-0.5,1.8-0.4,3.8,0.7,5.3c1.4,1.8,3.9,2.2,6.2,2
		c2.8-0.3,5.6-1.4,7.4-3.6s2-5.7,0.2-7.8c-1.3-1.5-3.3-2.1-5.2-2.5c-3-0.7-6.6-0.8-8.8,1.4c-2,2-2.1,5.1-2.1,7.9
		c0,2.1,0.2,4.5,2,5.6c0.9,0.5,1.9,0.6,2.9,0.6c2.6,0.1,5.3,0.1,7.7-0.9c2.5-0.9,4.7-2.8,5.3-5.4c0.7-2.8-0.7-5.8-2.9-7.6
		c-2.2-1.8-5.2-2.4-8.1-2.4c-2,0-4.4,0.8-4.8,2.7c-0.3,1.5,0.8,2.9,1.9,4.1c1.8,1.9,3.8,3.9,6.3,4.8c2.5,0.9,5.7,0.4,7.2-1.9
		c1.2-1.8,0.8-4.2,0.4-6.4c-1.5-7-3.7-13.9-6.5-20.6c2.6,10,5.2,20,7.8,30.1c0.5,2,1,3.9,1.5,5.9c1.7-2.6,1.5-6,0.4-8.9
		s-2.9-5.4-4.4-8.1c-2.3-4.4-3.6-9.4-3.7-14.5C59.8,19,61.6,29.8,65.2,40c0.2-6.2-1.3-12.5-4.3-17.9"/>
	<path id="XMLID_58_" class="st1" d="M74.7,29c-0.3,2.9,0.4,5.9,2,8.4c-0.7-2.9-3.6-4.9-3.8-7.9c-0.1-2.6,2.1-4.8,4.6-5.5
		c2.5-0.6,5.2,0.1,7.6,1.1c-3.3-0.9-7.3-1.5-9.5,1c-1.4,1.6-1.5,4.1-0.8,6.1c0.7,2,2.2,3.7,3.6,5.4c-1.4-2.2-2.3-4.7-2.8-7.3
		c-0.2-0.9-0.3-1.9,0.2-2.8c0.7-1.3,2.5-1.5,4-1.2c1.4,0.3,2.8,1.1,4.3,1.2"/>
	<path id="XMLID_57_" class="st1" d="M93.8,26.3c-0.3,2.9-0.5,5.8-0.5,8.8c1-2.4,1-5.2-0.1-7.6c-0.5,3.9-0.6,7.8-0.4,11.7
		c0,0.5,0.1,1,0.5,1.2c0.4,0.2,1-0.5,0.5-0.7"/>
	<path id="XMLID_56_" class="st1" d="M91.8,17.8c-0.2,0.6-0.1,1.3,0.2,1.9c1.4,0.5,2.9-1.2,2.3-2.5c-1-0.5-2.4,0.1-2.7,1.2
		c0.9,1.1,3,0.9,3.5-0.5c-0.9-0.5-2.1-0.3-2.9,0.4c0.5,1.1,1.6,1.9,2.8,2c0.5-0.8,0.2-2-0.6-2.6c-0.8-0.5-2-0.3-2.6,0.4
		c0.7,0.8,2.1,0.9,2.9,0.1s0.7-2.2-0.1-2.9c-1.2-1-3.4-0.2-3.5,1.4s1.8,2.8,3.2,2.1"/>
	<path id="XMLID_55_" class="st1" d="M112.7,25.8c-3.6-0.5-8.2-0.3-9.9,3c-1.8,3.4,1.6,8,5.4,8c3.9,0,7.1-3.7,7.5-7.5
		c0.1-0.6,0.1-1.3-0.3-1.8c-0.3-0.6-1-0.9-1.6-1.1c-3.5-1.5-8-2.5-10.6,0.2c-1.7,1.7-1.9,4.6-0.8,6.7c1.1,2.1,3.2,3.6,5.5,4.3
		c1.3,0.4,2.6,0.5,3.9,0.1c3.3-1.2,3.6-5.8,3.1-9.3c-1.1-6.8-3.2-13.5-6.4-19.6c1.8,11.6,4.1,23.1,7.1,34.5
		c2.6-4.1-0.8-9.2-2.2-13.8c-2-6.7,0.3-14.3-2.2-20.8c-0.3,10.5-0.5,21.4,3.7,31c0.1-0.6,0.2-1.2,0.3-1.8"/>
	<path id="XMLID_54_" class="st1" d="M123.5,29.7c2-0.9,4.1-1.7,6.1-2.6c1.7-0.7,3.8-2.2,3.3-4c-0.7-2.2-3.9-1.6-5.9-0.5
		c-1.9,1-3.9,2.1-5,4c-2.1,3.7,0.8,8.8,4.9,10.3c4,1.5,8.5,0.6,12.7-0.5c-3.7,0.5-7.3,0.9-11,1c-1.6,0-3.2,0-4.5-0.8
		c-0.8-0.5-1.3-1.2-1.7-2c-1.8-3.2-0.9-7.9,2.3-9.7c3.2-1.8,8.1,0.6,8,4.3c-0.1,2.2-1.8,4.2-3.8,5.2c-2,1-4.3,1.2-6.5,1.4
		c4.8,0.3,9.7-2.5,11.8-6.8c0.2-0.3,0.3-0.7,0.2-1c-0.1-0.3-0.3-0.6-0.6-0.8c-2.5-2-6.4-1.9-8.7,0.3c-2.3,2.1-2.7,6.1-0.8,8.6
		c1.1,1.5,2.7,2.4,4.4,3.2c3.5,1.7,8,3,11,0.5"/>
	<path id="XMLID_53_" class="st1" d="M142.4,28.3c-0.1,3.6,1.4,7.2,4,9.8c-2.3-4.2-3.7-8.9-4-13.7c-0.1-0.9,0-1.9,0.7-2.4
		c0.5-0.3,1.1-0.3,1.7-0.3c1.8,0,3.6,0.1,5.4,0.1c-3.5-1.5-7.5,2-7.8,5.7s2.2,7.2,5,9.7c-1.9-4.9-3.8-9.8-5.8-14.6
		c4.8-1.7,10.2-1.3,14.7,1"/>
	<path id="XMLID_52_" class="st1" d="M176.6,24.4c-6.2-0.4-12.6,0.4-18.5,2.4c3,6.7,15,7.7,14.8,15c-0.2,5.2-6.6,7.4-11.8,8.1
		c-9.1,1.4-18.3,2.7-27.6,2.6c-12-0.2-23.8-3-35.8-4.1c-7.7-0.7-15.4-0.8-23.1-0.8c-22.5-0.1-45-0.2-67.6-0.3
		c11.6,6.3,25.8,0.7,39,0.3c6.9-0.2,13.8,1.1,20.6,1.5c13.3,0.8,26.7-1.6,40,0.1c5.6,0.7,11.1,2.2,16.7,2.9
		c14,1.7,28.1-1.6,41.9-4.8c2.5-0.6,5-1.2,7-2.8s3.3-4.3,2.4-6.7c-2.1-5.5-13-3.9-13.6-9.8c-0.3-2.4,1.9-4.6,4.3-5.3
		c2.4-0.6,4.9-0.1,7.3,0.3c-3.2,0.5-5.6,1.4-8.8,1.9c-1.6,0.3-3.4,0.7-4.1,2.1c-1,1.9,0.9,4.2,2.8,5c2,0.9,4.3,1.1,6,2.4
		c3.2,2.5,2.6,7.7-0.1,10.7c-2.7,3-6.8,4.2-10.6,5.3c-4.1,1.2-8.3,2.4-12.5,2.9c-8.8,1-17.7-1-26.4-2.3c-17.9-2.7-36.1-2.7-54.2-2.7
		c-19.4,0-38.9,0.1-58.3,0.1c52.8-6.4,107.3,10.5,158.9-2.1c3.1-0.8,6.8-2.5,6.7-5.6c-0.1-5.1-8.7-4.3-11.9-8.3
		c-2.2-2.8-0.8-7.3,2.3-9.1c3.1-1.8,7.1-1.1,10.1,0.8"/>
</g>
<g id="main_text">
	<path id="XMLID_1_" class="st2" d="M3.7,26c1,4.9,1.8,9.9,2.2,14.9c0-4.9,0-9.8-0.1-14.7c0,5.6,0.6,11.1,1.8,16.5
		c-0.6-3.7-1.3-7.3-1.9-11c-0.2-0.9-0.3-1.8-0.2-2.7c0.4-2.9,3.4-4.8,6.3-4.9c2.9-0.1,5.6,1.1,8.3,2.3c-2.5-0.6-4.8-2.1-7.4-2.5
		c-2.6-0.4-5.8,1.1-5.7,3.7c0,1,0.4,2.5-0.6,2.8c-0.2-3,3.1-5.5,6.1-5.2s5.5,2.8,6.6,5.6"/>
	<path id="XMLID_2_" class="st2" d="M29.2,32.4c1-0.5,0.4-2.1-0.7-2.6c-2.5-1.1-5.5,1.8-5,4.6s3.4,4.5,6.2,4.4
		c2.7-0.1,5.2-1.8,7.1-3.8c0.8-0.8,1.5-1.8,1.7-2.9c0.4-2.3-1.6-4.4-3.8-5.2c-2.8-1.1-6.2-0.5-8.5,1.5s-3,5.5-1.7,8.2
		c1.3,2.7,4.8,4.2,7.6,3.1c1.4-0.6,2.6-1.7,3.6-2.9c1.3-1.6,2.4-3.6,2.4-5.7c-0.1-3.9-4.9-6.9-8.4-5.2c-3.5,1.7-4.3,7.3-1.2,9.8
		c1.2,1,2.9,1.5,4.4,1c1.9-0.7,2.8-2.7,3.4-4.6c0.6-2.2,0.9-4.6,0.8-6.9c0.6,3.8,2,7.6,3.9,10.9c0.5-2.8-0.2-5.9-1.9-8.1
		c0.9,3.1,2.3,6.1,4.2,8.8c-0.8-3-1.6-6-2.4-9c-0.7,3.7,0.3,7.7,2.7,10.5c0.3-2.9-0.7-5.9-2.7-8.1c1,0.9,1.9,1.9,2.9,2.8"/>
	<path id="XMLID_3_" class="st2" d="M58.2,22.5c-4.4,0.1-8.6,3.4-9.7,7.7C48,32,48.1,34,49.2,35.5c1.4,1.8,3.9,2.2,6.2,2
		c2.8-0.3,5.6-1.4,7.4-3.6s2-5.7,0.2-7.8c-1.3-1.5-3.3-2.1-5.2-2.5c-3-0.7-6.6-0.8-8.8,1.4c-2,2-2.1,5.1-2.1,7.9
		c0,2.1,0.2,4.5,2,5.6c0.9,0.5,1.9,0.6,2.9,0.6c2.6,0.1,5.3,0.1,7.7-0.9c2.5-0.9,4.7-2.8,5.3-5.4c0.7-2.8-0.7-5.8-2.9-7.6
		c-2.2-1.8-5.2-2.4-8.1-2.4c-2,0-4.4,0.8-4.8,2.7c-0.3,1.5,0.8,2.9,1.9,4.1c1.8,1.9,3.8,3.9,6.3,4.8c2.5,0.9,5.7,0.4,7.2-1.9
		c1.2-1.8,0.8-4.2,0.4-6.4c-1.5-7-3.7-13.9-6.5-20.6c2.6,10,5.2,20,7.8,30.1c0.5,2,1,3.9,1.5,5.9c1.7-2.6,1.5-6,0.4-8.9
		s-2.9-5.4-4.4-8.1c-2.3-4.4-3.6-9.4-3.7-14.5C59.7,21,61.5,31.8,65.1,42c0.2-6.2-1.3-12.5-4.3-17.9"/>
	<path id="XMLID_4_" class="st2" d="M74.6,31c-0.3,2.9,0.4,5.9,2,8.4c-0.7-2.9-3.6-4.9-3.8-7.9c-0.1-2.6,2.1-4.8,4.6-5.5
		c2.5-0.6,5.2,0.1,7.6,1.1c-3.3-0.9-7.3-1.5-9.5,1c-1.4,1.6-1.5,4.1-0.8,6.1s2.2,3.7,3.6,5.4c-1.4-2.2-2.3-4.7-2.8-7.3
		c-0.2-0.9-0.3-1.9,0.2-2.8c0.7-1.3,2.5-1.5,4-1.2s2.8,1.1,4.3,1.2"/>
	<path id="XMLID_5_" class="st2" d="M93.7,28.3c-0.3,2.9-0.5,5.8-0.5,8.8c1-2.4,1-5.2-0.1-7.6c-0.5,3.9-0.6,7.8-0.4,11.7
		c0,0.5,0.1,1,0.5,1.2c0.4,0.2,1-0.5,0.5-0.7"/>
	<path id="XMLID_6_" class="st3" d="M91.7,19.8c-0.2,0.6-0.1,1.3,0.2,1.9c1.4,0.5,2.9-1.2,2.3-2.5c-1-0.5-2.4,0.1-2.7,1.2
		c0.9,1.1,3,0.9,3.5-0.5c-0.9-0.5-2.1-0.3-2.9,0.4c0.5,1.1,1.6,1.9,2.8,2c0.5-0.8,0.2-2-0.6-2.6c-0.8-0.5-2-0.3-2.6,0.4
		c0.7,0.8,2.1,0.9,2.9,0.1c0.8-0.7,0.7-2.2-0.1-2.9c-1.2-1-3.4-0.2-3.5,1.4s1.8,2.8,3.2,2.1"/>
	<path id="XMLID_7_" class="st2" d="M112.6,27.8c-3.6-0.5-8.2-0.3-9.9,3c-1.8,3.4,1.6,8,5.4,8c3.9,0,7.1-3.7,7.5-7.5
		c0.1-0.6,0.1-1.3-0.3-1.8c-0.3-0.6-1-0.9-1.6-1.1c-3.5-1.5-8-2.5-10.6,0.2c-1.7,1.7-1.9,4.6-0.8,6.7c1.1,2.1,3.2,3.6,5.5,4.3
		c1.3,0.4,2.6,0.5,3.9,0.1c3.3-1.2,3.6-5.8,3.1-9.3c-1.1-6.8-3.2-13.5-6.4-19.6c1.8,11.6,4.1,23.1,7.1,34.5
		c2.6-4.1-0.8-9.2-2.2-13.8c-2-6.7,0.3-14.3-2.2-20.8c-0.3,10.5-0.5,21.4,3.7,31c0.1-0.6,0.2-1.2,0.3-1.8"/>
	<path id="XMLID_8_" class="st2" d="M123.5,31.7c2-0.9,4.1-1.7,6.1-2.6c1.7-0.7,3.8-2.2,3.3-4c-0.7-2.2-3.9-1.6-5.9-0.5
		c-1.9,1-3.9,2.1-5,4c-2.1,3.7,0.8,8.8,4.9,10.3s8.5,0.6,12.7-0.5c-3.7,0.5-7.3,0.9-11,1c-1.6,0-3.2,0-4.5-0.8
		c-0.8-0.5-1.3-1.2-1.7-2c-1.8-3.2-0.9-7.9,2.3-9.7c3.2-1.8,8.1,0.6,8,4.3c-0.1,2.2-1.8,4.2-3.8,5.2c-2,1-4.3,1.2-6.5,1.4
		c4.8,0.3,9.7-2.5,11.8-6.8c0.2-0.3,0.3-0.7,0.2-1c-0.1-0.3-0.3-0.6-0.6-0.8c-2.5-2-6.4-1.9-8.7,0.3s-2.7,6.1-0.8,8.6
		c1.1,1.5,2.7,2.4,4.4,3.2c3.5,1.7,8,3,11,0.5"/>
	<path id="XMLID_9_" class="st2" d="M142.3,30.3c-0.1,3.6,1.4,7.2,4,9.8c-2.3-4.2-3.7-8.9-4-13.7c-0.1-0.9,0-1.9,0.7-2.4
		c0.5-0.3,1.1-0.3,1.7-0.3c1.8,0,3.6,0.1,5.4,0.1c-3.5-1.5-7.5,2-7.8,5.7c-0.2,3.8,2.2,7.2,5,9.7c-1.9-4.9-3.8-9.8-5.8-14.6
		c4.8-1.7,10.2-1.3,14.7,1"/>
	<path id="XMLID_10_" class="st2" d="M176.5,26.4c-6.2-0.4-12.6,0.4-18.5,2.4c3,6.7,15,7.7,14.8,15c-0.2,5.2-6.6,7.4-11.8,8.1
		c-9.1,1.4-18.3,2.7-27.6,2.6c-12-0.2-23.8-3-35.8-4.1c-7.7-0.7-15.4-0.8-23.1-0.8c-22.5-0.1-45-0.2-67.6-0.3
		c11.6,6.3,25.8,0.7,39,0.3c6.9-0.2,13.8,1.1,20.6,1.5c13.3,0.8,26.7-1.6,40,0.1c5.6,0.7,11.1,2.2,16.7,2.9
		c14,1.7,28.1-1.6,41.9-4.8c2.5-0.6,5-1.2,7-2.8c2-1.5,3.3-4.3,2.4-6.7c-2.1-5.5-13-3.9-13.6-9.8c-0.3-2.4,1.9-4.6,4.3-5.3
		c2.4-0.6,4.9-0.1,7.3,0.3c-3.2,0.5-5.6,1.4-8.8,1.9c-1.6,0.3-3.4,0.7-4.1,2.1c-1,1.9,0.9,4.2,2.8,5s4.3,1.1,6,2.4
		c3.2,2.5,2.6,7.7-0.1,10.7c-2.7,3-6.8,4.2-10.6,5.3c-4.1,1.2-8.3,2.4-12.5,2.9c-8.8,1-17.7-1-26.4-2.3c-17.9-2.7-36.1-2.7-54.2-2.7
		c-19.4,0-38.9,0.1-58.3,0.1c52.8-6.4,107.3,10.5,158.9-2.1c3.1-0.8,6.8-2.5,6.7-5.6c-0.1-5.1-8.7-4.3-11.9-8.3
		c-2.2-2.8-0.8-7.3,2.3-9.1c3.1-1.8,7.1-1.1,10.1,0.8"/>
</g>
</svg>
